<svg data-name="Layer 1" xmlns="http://www.w3.org/2000/svg" width="64" height="64">
  <path d="M32 0a32 32 0 1 0 32 32A32 32 0 0 0 32 0z" fill="#fff"/>
  <path d="M32 47.7a9.2 9.2 0 0 1-6.9-2.8 9.6 9.6 0 0 1-2.8-7h4.4a6 6 0 0 0 1.5 4.2 5.2 5.2 0 0 0 3.8 1.5 5 5 0 0 0 3.7-1.4 4.9 4.9 0 0 0 1.5-3.6 5.3 5.3 0 0 0-1.4-3.7 5 5 0 0 0-3.8-1.5h-2.5V30h2.5a4.7 4.7 0 0 0 3.4-1.3 4.4 4.4 0 0 0 1.3-3.3 4.2 4.2 0 0 0-1.4-3.3 5 5 0 0 0-3.4-1.2 4.8 4.8 0 0 0-3.5 1.4 5.4 5.4 0 0 0-1.5 3.8h-4.4a9.3 9.3 0 0 1 2.8-6.6A9.2 9.2 0 0 1 32 16.7a9.7 9.7 0 0 1 6.7 2.4 7.9 7.9 0 0 1 2.7 6.1 7.4 7.4 0 0 1-1.6 4.8 7.8 7.8 0 0 1-3.7 2.6 8 8 0 0 1 4.1 2.7 7.7 7.7 0 0 1 1.7 5 9.1 9.1 0 0 1-2.9 6.8A9.6 9.6 0 0 1 32 47.7z" fill="#07a74c"/>
</svg>
